<svg id="svg" version="1.1" xmlns="http://www.w3.org/2000/svg" xmlns:xlink="http://www.w3.org/1999/xlink" width="400" height="400" viewBox="0, 0, 400,400"><g id="svgg"><path id="path0" d="M79.600 40.200 L 79.600 80.400 119.600 80.400 L 159.600 80.400 159.600 120.000 L 159.600 159.600 119.800 159.600 L 80.000 159.600 80.000 199.800 L 80.000 240.000 40.000 240.000 L 0.000 240.000 0.000 320.000 L 0.000 400.000 40.200 400.000 L 80.400 400.000 80.400 320.200 L 80.400 240.400 120.400 240.400 L 160.400 240.400 160.400 200.400 L 160.400 160.400 200.000 160.400 L 239.600 160.400 239.600 200.400 L 239.600 240.400 279.600 240.400 L 319.600 240.400 319.600 320.200 L 319.600 400.000 359.800 400.000 L 400.000 400.000 400.000 320.000 L 400.000 240.000 360.000 240.000 L 320.000 240.000 320.000 199.800 L 320.000 159.600 280.200 159.600 L 240.400 159.600 240.400 120.000 L 240.400 80.400 280.400 80.400 L 320.400 80.400 320.400 40.200 L 320.400 0.000 280.200 0.000 L 240.000 0.000 240.000 40.000 L 240.000 80.000 200.000 80.000 L 160.000 80.000 160.000 40.000 L 160.000 0.000 119.800 0.000 L 79.600 0.000 79.600 40.200 " stroke="none" fill="#848c84" fill-rule="evenodd"></path><path id="path1" d="M160.000 40.000 L 160.000 80.000 200.000 80.000 L 240.000 80.000 240.000 40.000 L 240.000 0.000 200.000 0.000 L 160.000 0.000 160.000 40.000 M0.000 199.800 L 0.000 240.000 40.000 240.000 L 80.000 240.000 80.000 199.800 L 80.000 159.600 40.000 159.600 L 0.000 159.600 0.000 199.800 M320.000 199.800 L 320.000 240.000 360.000 240.000 L 400.000 240.000 400.000 199.800 L 400.000 159.600 360.000 159.600 L 320.000 159.600 320.000 199.800 " stroke="none" fill="#fc7c24" fill-rule="evenodd"></path></g></svg>